<svg width="24" height="24" viewBox="0 0 24 24" fill="none" xmlns="http://www.w3.org/2000/svg">
<path d="M15.8292 21.3666C14.0818 17.8253 14.1283 15.2842 14.8755 13.4798C15.5561 11.8105 16.8289 10.7587 17.8291 10.1041C17.849 10.2002 17.88 10.2937 17.9216 10.3827L20.2727 15.6143C20.5164 16.1543 20.4039 16.7885 19.9891 17.2122L16.2318 21.078C16.1133 21.196 15.9737 21.294 15.8297 21.366L15.8292 21.3666ZM11.0766 14.1815C10.6075 14.2275 10.1489 14.331 9.69533 14.4955C8.26253 15.0317 6.95822 16.2379 5.88099 18.5624C5.80345 18.4284 5.72647 18.2999 5.64395 18.1758C4.98571 17.199 4.355 16.2039 3.75256 15.1917C3.67889 15.0673 3.6444 14.9235 3.65359 14.7792C3.66277 14.6349 3.71521 14.4967 3.80407 14.3826C4.52944 13.4501 5.14668 12.4384 5.64395 11.3669C6.13908 10.1816 6.21108 8.33122 6.21607 7.43455C6.21607 7.09393 6.32462 6.75886 6.53564 6.49079L10.2724 1.74931L10.3345 1.67178C10.0614 2.57399 10.0769 3.2951 10.247 3.94975C10.402 4.55842 10.69 5.1095 10.9947 5.69215C11.0971 5.88821 11.2007 6.08925 11.2982 6.29529C11.7828 7.22113 12.0606 8.2412 12.1123 9.28495C12.1644 10.5322 11.9118 12.0941 11.0822 14.181L11.0766 14.1815Z" stroke="#D7DAE0" stroke-width="1.5" stroke-linecap="round" stroke-linejoin="round"/>
<path d="M11.0821 14.1815C11.9118 12.0935 12.1644 10.5317 12.1123 9.28495C12.0613 8.04765 11.7002 7.11941 11.2981 6.29528L10.9891 5.69159C10.69 5.11005 10.4065 4.55787 10.2469 3.94974C10.0572 3.19773 10.0876 2.40702 10.3345 1.67177C10.5909 1.39007 10.9483 1.22115 11.3287 1.20185C11.7092 1.18255 12.0818 1.31444 12.3654 1.56876L16.8084 5.5631C17.0576 5.7863 17.2215 6.0887 17.2725 6.41879L17.8136 10.0061C17.8136 10.0421 17.8241 10.0731 17.8291 10.1091C16.8289 10.7587 15.5611 11.8105 14.8754 13.4753C14.7414 13.8049 14.6279 14.1505 14.5459 14.5265C13.4195 14.2141 12.2483 14.0956 11.0821 14.176V14.1815Z" stroke="#D7DAE0" stroke-width="1.5" stroke-linecap="round" stroke-linejoin="round"/>
<path d="M8.75268 22.7478C7.79342 23.0109 6.82972 22.2427 6.69569 21.253C6.58603 20.3142 6.308 19.4032 5.876 18.5624C6.95822 16.2379 8.26253 15.0317 9.69034 14.4955C11.2106 13.9289 12.8655 14.1189 14.5459 14.5265C14.1693 16.2324 14.3908 18.4644 15.8242 21.3666C15.6641 21.4491 15.4836 21.495 15.3036 21.5106L13.0406 21.6806C11.8138 21.7686 9.98443 22.4022 8.75268 22.7478Z" stroke="#D7DAE0" stroke-width="1.5" stroke-linecap="round" stroke-linejoin="round"/>
</svg>
